<mxfile host="app.diagrams.net" modified="2024-01-30T16:15:54.075Z" agent="Mozilla/5.0 (Windows NT 10.0; Win64; x64; rv:122.0) Gecko/20100101 Firefox/122.0" etag="CjyyAIZHPvuTKT9kBizn" version="23.0.2" type="device">
  <diagram name="Page-1" id="chzkpfdwhdfvxPw7ILMI">
    <mxGraphModel dx="1610" dy="409" grid="1" gridSize="10" guides="1" tooltips="1" connect="1" arrows="1" fold="1" page="1" pageScale="1" pageWidth="850" pageHeight="1100" math="0" shadow="0">
      <root>
        <mxCell id="0" />
        <mxCell id="1" parent="0" />
        <mxCell id="cozXmET7q1ddLi7VtLE--1" value="DRIVER" style="rounded=0;whiteSpace=wrap;html=1;" parent="1" vertex="1">
          <mxGeometry x="-150" y="205" width="120" height="60" as="geometry" />
        </mxCell>
        <mxCell id="cozXmET7q1ddLi7VtLE--2" value="VEHICLE" style="rounded=0;whiteSpace=wrap;html=1;" parent="1" vertex="1">
          <mxGeometry x="230" y="205" width="120" height="60" as="geometry" />
        </mxCell>
        <mxCell id="cozXmET7q1ddLi7VtLE--12" value="drives" style="shape=rhombus;perimeter=rhombusPerimeter;whiteSpace=wrap;html=1;align=center;" parent="1" vertex="1">
          <mxGeometry x="40" y="210" width="120" height="60" as="geometry" />
        </mxCell>
        <mxCell id="cozXmET7q1ddLi7VtLE--13" value="" style="endArrow=none;html=1;rounded=0;exitX=1.032;exitY=0.586;exitDx=0;exitDy=0;entryX=0;entryY=0.5;entryDx=0;entryDy=0;exitPerimeter=0;" parent="1" source="cozXmET7q1ddLi7VtLE--1" target="cozXmET7q1ddLi7VtLE--12" edge="1">
          <mxGeometry width="50" height="50" relative="1" as="geometry">
            <mxPoint x="-20" y="240" as="sourcePoint" />
            <mxPoint x="170" y="290" as="targetPoint" />
          </mxGeometry>
        </mxCell>
        <mxCell id="cozXmET7q1ddLi7VtLE--14" value="" style="endArrow=none;html=1;rounded=0;exitX=1;exitY=0.5;exitDx=0;exitDy=0;entryX=-0.036;entryY=0.574;entryDx=0;entryDy=0;entryPerimeter=0;" parent="1" target="cozXmET7q1ddLi7VtLE--2" edge="1">
          <mxGeometry width="50" height="50" relative="1" as="geometry">
            <mxPoint x="160" y="239.66" as="sourcePoint" />
            <mxPoint x="210" y="240" as="targetPoint" />
          </mxGeometry>
        </mxCell>
        <mxCell id="cozXmET7q1ddLi7VtLE--15" value="(0, 1)" style="text;html=1;align=center;verticalAlign=middle;resizable=0;points=[];autosize=1;strokeColor=none;fillColor=none;" parent="1" vertex="1">
          <mxGeometry x="-25" y="208" width="50" height="30" as="geometry" />
        </mxCell>
        <mxCell id="cozXmET7q1ddLi7VtLE--16" value="(0, 1)" style="text;html=1;align=center;verticalAlign=middle;resizable=0;points=[];autosize=1;strokeColor=none;fillColor=none;" parent="1" vertex="1">
          <mxGeometry x="170" y="208" width="50" height="30" as="geometry" />
        </mxCell>
        <mxCell id="cozXmET7q1ddLi7VtLE--17" value="park" style="shape=rhombus;perimeter=rhombusPerimeter;whiteSpace=wrap;html=1;align=center;" parent="1" vertex="1">
          <mxGeometry x="230" y="320" width="120" height="60" as="geometry" />
        </mxCell>
        <mxCell id="cozXmET7q1ddLi7VtLE--18" value="" style="endArrow=none;html=1;rounded=0;entryX=0.5;entryY=1;entryDx=0;entryDy=0;exitX=0.5;exitY=0;exitDx=0;exitDy=0;" parent="1" source="cozXmET7q1ddLi7VtLE--17" target="cozXmET7q1ddLi7VtLE--2" edge="1">
          <mxGeometry width="50" height="50" relative="1" as="geometry">
            <mxPoint x="283" y="370" as="sourcePoint" />
            <mxPoint x="290" y="270" as="targetPoint" />
          </mxGeometry>
        </mxCell>
        <mxCell id="cozXmET7q1ddLi7VtLE--19" value="(0, n)" style="text;html=1;align=center;verticalAlign=middle;resizable=0;points=[];autosize=1;strokeColor=none;fillColor=none;" parent="1" vertex="1">
          <mxGeometry x="290" y="400" width="50" height="30" as="geometry" />
        </mxCell>
        <mxCell id="cozXmET7q1ddLi7VtLE--20" value="" style="endArrow=none;html=1;rounded=0;entryX=0.5;entryY=1;entryDx=0;entryDy=0;exitX=0.5;exitY=0;exitDx=0;exitDy=0;" parent="1" source="cozXmET7q1ddLi7VtLE--23" target="cozXmET7q1ddLi7VtLE--17" edge="1">
          <mxGeometry width="50" height="50" relative="1" as="geometry">
            <mxPoint x="280" y="460" as="sourcePoint" />
            <mxPoint x="356" y="452" as="targetPoint" />
          </mxGeometry>
        </mxCell>
        <mxCell id="cozXmET7q1ddLi7VtLE--21" value="(0, 1)" style="text;html=1;align=center;verticalAlign=middle;resizable=0;points=[];autosize=1;strokeColor=none;fillColor=none;" parent="1" vertex="1">
          <mxGeometry x="300" y="270" width="50" height="30" as="geometry" />
        </mxCell>
        <mxCell id="cozXmET7q1ddLi7VtLE--23" value="PARKING" style="rounded=0;whiteSpace=wrap;html=1;" parent="1" vertex="1">
          <mxGeometry x="230" y="440" width="120" height="60" as="geometry" />
        </mxCell>
        <mxCell id="cozXmET7q1ddLi7VtLE--24" value="" style="ellipse;whiteSpace=wrap;html=1;aspect=fixed;" parent="1" vertex="1">
          <mxGeometry x="-225" y="222.5" width="10" height="10" as="geometry" />
        </mxCell>
        <mxCell id="cozXmET7q1ddLi7VtLE--25" value="" style="endArrow=none;html=1;rounded=0;exitX=1;exitY=0.5;exitDx=0;exitDy=0;entryX=-0.014;entryY=0.358;entryDx=0;entryDy=0;entryPerimeter=0;" parent="1" source="cozXmET7q1ddLi7VtLE--24" target="cozXmET7q1ddLi7VtLE--1" edge="1">
          <mxGeometry width="50" height="50" relative="1" as="geometry">
            <mxPoint x="-210" y="287.5" as="sourcePoint" />
            <mxPoint x="-170" y="232.5" as="targetPoint" />
          </mxGeometry>
        </mxCell>
        <mxCell id="cozXmET7q1ddLi7VtLE--26" value="" style="ellipse;whiteSpace=wrap;html=1;aspect=fixed;fillColor=none;" parent="1" vertex="1">
          <mxGeometry x="-225" y="252.5" width="10" height="10" as="geometry" />
        </mxCell>
        <mxCell id="cozXmET7q1ddLi7VtLE--27" value="" style="endArrow=none;html=1;rounded=0;exitX=1;exitY=0.5;exitDx=0;exitDy=0;entryX=-0.022;entryY=0.747;entryDx=0;entryDy=0;entryPerimeter=0;" parent="1" source="cozXmET7q1ddLi7VtLE--26" target="cozXmET7q1ddLi7VtLE--1" edge="1">
          <mxGeometry width="50" height="50" relative="1" as="geometry">
            <mxPoint x="-200" y="297.5" as="sourcePoint" />
            <mxPoint x="-170" y="245.5" as="targetPoint" />
          </mxGeometry>
        </mxCell>
        <mxCell id="cozXmET7q1ddLi7VtLE--30" value="" style="ellipse;whiteSpace=wrap;html=1;aspect=fixed;fillColor=#007FFF;" parent="1" vertex="1">
          <mxGeometry x="-225" y="202.5" width="10" height="10" as="geometry" />
        </mxCell>
        <mxCell id="cozXmET7q1ddLi7VtLE--31" value="" style="endArrow=none;html=1;rounded=0;exitX=1;exitY=0.5;exitDx=0;exitDy=0;entryX=-0.004;entryY=0.106;entryDx=0;entryDy=0;entryPerimeter=0;" parent="1" source="cozXmET7q1ddLi7VtLE--30" target="cozXmET7q1ddLi7VtLE--1" edge="1">
          <mxGeometry width="50" height="50" relative="1" as="geometry">
            <mxPoint x="-205" y="262.5" as="sourcePoint" />
            <mxPoint x="-170" y="217.5" as="targetPoint" />
            <Array as="points">
              <mxPoint x="-190" y="207.5" />
            </Array>
          </mxGeometry>
        </mxCell>
        <mxCell id="cozXmET7q1ddLi7VtLE--32" value="id" style="text;html=1;align=center;verticalAlign=middle;resizable=0;points=[];autosize=1;strokeColor=none;fillColor=none;" parent="1" vertex="1">
          <mxGeometry x="-270" y="187.5" width="30" height="30" as="geometry" />
        </mxCell>
        <mxCell id="cozXmET7q1ddLi7VtLE--33" value="name" style="text;html=1;align=center;verticalAlign=middle;resizable=0;points=[];autosize=1;strokeColor=none;fillColor=none;" parent="1" vertex="1">
          <mxGeometry x="-290" y="212.5" width="60" height="30" as="geometry" />
        </mxCell>
        <mxCell id="cozXmET7q1ddLi7VtLE--34" value="phone" style="text;html=1;align=center;verticalAlign=middle;resizable=0;points=[];autosize=1;strokeColor=none;fillColor=none;" parent="1" vertex="1">
          <mxGeometry x="-285" y="240" width="60" height="30" as="geometry" />
        </mxCell>
        <mxCell id="cozXmET7q1ddLi7VtLE--37" value="" style="endArrow=none;html=1;rounded=0;exitX=1.013;exitY=0.175;exitDx=0;exitDy=0;exitPerimeter=0;entryX=0;entryY=0.5;entryDx=0;entryDy=0;" parent="1" source="cozXmET7q1ddLi7VtLE--2" target="cozXmET7q1ddLi7VtLE--39" edge="1">
          <mxGeometry width="50" height="50" relative="1" as="geometry">
            <mxPoint x="360" y="300" as="sourcePoint" />
            <mxPoint x="410" y="216" as="targetPoint" />
            <Array as="points">
              <mxPoint x="370" y="200" />
            </Array>
          </mxGeometry>
        </mxCell>
        <mxCell id="cozXmET7q1ddLi7VtLE--38" value="plate_number" style="text;html=1;align=center;verticalAlign=middle;resizable=0;points=[];autosize=1;strokeColor=none;fillColor=none;" parent="1" vertex="1">
          <mxGeometry x="425" y="177.5" width="100" height="30" as="geometry" />
        </mxCell>
        <mxCell id="cozXmET7q1ddLi7VtLE--39" value="" style="ellipse;whiteSpace=wrap;html=1;aspect=fixed;fillColor=#007FFF;" parent="1" vertex="1">
          <mxGeometry x="415" y="187.5" width="10" height="10" as="geometry" />
        </mxCell>
        <mxCell id="cozXmET7q1ddLi7VtLE--40" value="brand" style="text;html=1;align=center;verticalAlign=middle;resizable=0;points=[];autosize=1;strokeColor=none;fillColor=none;" parent="1" vertex="1">
          <mxGeometry x="425" y="207.5" width="60" height="30" as="geometry" />
        </mxCell>
        <mxCell id="cozXmET7q1ddLi7VtLE--41" value="model" style="text;html=1;align=center;verticalAlign=middle;resizable=0;points=[];autosize=1;strokeColor=none;fillColor=none;" parent="1" vertex="1">
          <mxGeometry x="425" y="235" width="60" height="30" as="geometry" />
        </mxCell>
        <mxCell id="cozXmET7q1ddLi7VtLE--42" value="" style="endArrow=none;html=1;rounded=0;entryX=0;entryY=0.5;entryDx=0;entryDy=0;" parent="1" target="cozXmET7q1ddLi7VtLE--45" edge="1">
          <mxGeometry width="50" height="50" relative="1" as="geometry">
            <mxPoint x="350" y="231" as="sourcePoint" />
            <mxPoint x="410" y="240" as="targetPoint" />
            <Array as="points">
              <mxPoint x="380" y="220" />
            </Array>
          </mxGeometry>
        </mxCell>
        <mxCell id="cozXmET7q1ddLi7VtLE--43" value="" style="endArrow=none;html=1;rounded=0;entryX=-0.146;entryY=0.385;entryDx=0;entryDy=0;entryPerimeter=0;" parent="1" target="cozXmET7q1ddLi7VtLE--47" edge="1">
          <mxGeometry width="50" height="50" relative="1" as="geometry">
            <mxPoint x="350" y="250" as="sourcePoint" />
            <mxPoint x="420" y="260" as="targetPoint" />
            <Array as="points">
              <mxPoint x="380" y="250" />
            </Array>
          </mxGeometry>
        </mxCell>
        <mxCell id="cozXmET7q1ddLi7VtLE--45" value="" style="ellipse;whiteSpace=wrap;html=1;aspect=fixed;" parent="1" vertex="1">
          <mxGeometry x="415" y="217.5" width="10" height="10" as="geometry" />
        </mxCell>
        <mxCell id="cozXmET7q1ddLi7VtLE--47" value="" style="ellipse;whiteSpace=wrap;html=1;aspect=fixed;" parent="1" vertex="1">
          <mxGeometry x="420" y="242.5" width="10" height="10" as="geometry" />
        </mxCell>
        <mxCell id="cozXmET7q1ddLi7VtLE--48" value="" style="endArrow=none;html=1;rounded=0;entryX=-0.146;entryY=0.385;entryDx=0;entryDy=0;entryPerimeter=0;exitX=1.005;exitY=0.971;exitDx=0;exitDy=0;exitPerimeter=0;" parent="1" source="cozXmET7q1ddLi7VtLE--2" target="cozXmET7q1ddLi7VtLE--49" edge="1">
          <mxGeometry width="50" height="50" relative="1" as="geometry">
            <mxPoint x="347.6799999999999" y="278.72" as="sourcePoint" />
            <mxPoint x="427.32" y="287.5" as="targetPoint" />
            <Array as="points">
              <mxPoint x="390" y="270" />
            </Array>
          </mxGeometry>
        </mxCell>
        <mxCell id="cozXmET7q1ddLi7VtLE--49" value="" style="ellipse;whiteSpace=wrap;html=1;aspect=fixed;" parent="1" vertex="1">
          <mxGeometry x="420" y="270" width="10" height="10" as="geometry" />
        </mxCell>
        <mxCell id="cozXmET7q1ddLi7VtLE--50" value="image" style="text;html=1;align=center;verticalAlign=middle;resizable=0;points=[];autosize=1;strokeColor=none;fillColor=none;" parent="1" vertex="1">
          <mxGeometry x="425" y="262.5" width="60" height="30" as="geometry" />
        </mxCell>
        <mxCell id="cozXmET7q1ddLi7VtLE--51" value="(0, n)" style="text;html=1;align=center;verticalAlign=middle;resizable=0;points=[];autosize=1;strokeColor=none;fillColor=none;" parent="1" vertex="1">
          <mxGeometry x="370" y="262.5" width="50" height="30" as="geometry" />
        </mxCell>
        <mxCell id="cozXmET7q1ddLi7VtLE--52" value="address" style="ellipse;whiteSpace=wrap;html=1;" parent="1" vertex="1">
          <mxGeometry x="410" y="455" width="65" height="30" as="geometry" />
        </mxCell>
        <mxCell id="cozXmET7q1ddLi7VtLE--53" value="" style="endArrow=none;html=1;rounded=0;exitX=1;exitY=0;exitDx=0;exitDy=0;entryX=0;entryY=0.5;entryDx=0;entryDy=0;" parent="1" source="cozXmET7q1ddLi7VtLE--52" target="cozXmET7q1ddLi7VtLE--55" edge="1">
          <mxGeometry width="50" height="50" relative="1" as="geometry">
            <mxPoint x="487" y="483.5" as="sourcePoint" />
            <mxPoint x="545" y="483.5" as="targetPoint" />
            <Array as="points">
              <mxPoint x="490" y="450" />
            </Array>
          </mxGeometry>
        </mxCell>
        <mxCell id="cozXmET7q1ddLi7VtLE--54" value="street" style="text;html=1;align=center;verticalAlign=middle;resizable=0;points=[];autosize=1;strokeColor=none;fillColor=none;" parent="1" vertex="1">
          <mxGeometry x="520" y="455" width="50" height="30" as="geometry" />
        </mxCell>
        <mxCell id="cozXmET7q1ddLi7VtLE--55" value="" style="ellipse;whiteSpace=wrap;html=1;aspect=fixed;fillColor=none;" parent="1" vertex="1">
          <mxGeometry x="510" y="445" width="10" height="10" as="geometry" />
        </mxCell>
        <mxCell id="cozXmET7q1ddLi7VtLE--56" value="number" style="text;html=1;align=center;verticalAlign=middle;resizable=0;points=[];autosize=1;strokeColor=none;fillColor=none;" parent="1" vertex="1">
          <mxGeometry x="515" y="475" width="70" height="30" as="geometry" />
        </mxCell>
        <mxCell id="cozXmET7q1ddLi7VtLE--57" value="" style="endArrow=none;html=1;rounded=0;entryX=0;entryY=0.5;entryDx=0;entryDy=0;exitX=1;exitY=0.5;exitDx=0;exitDy=0;" parent="1" source="cozXmET7q1ddLi7VtLE--52" target="cozXmET7q1ddLi7VtLE--59" edge="1">
          <mxGeometry width="50" height="50" relative="1" as="geometry">
            <mxPoint x="485" y="498.5" as="sourcePoint" />
            <mxPoint x="545" y="507.5" as="targetPoint" />
            <Array as="points">
              <mxPoint x="500" y="470" />
            </Array>
          </mxGeometry>
        </mxCell>
        <mxCell id="cozXmET7q1ddLi7VtLE--58" value="" style="endArrow=none;html=1;rounded=0;entryX=-0.146;entryY=0.385;entryDx=0;entryDy=0;entryPerimeter=0;exitX=1;exitY=1;exitDx=0;exitDy=0;" parent="1" source="cozXmET7q1ddLi7VtLE--52" target="cozXmET7q1ddLi7VtLE--60" edge="1">
          <mxGeometry width="50" height="50" relative="1" as="geometry">
            <mxPoint x="485" y="517.5" as="sourcePoint" />
            <mxPoint x="555" y="527.5" as="targetPoint" />
            <Array as="points">
              <mxPoint x="480" y="490" />
            </Array>
          </mxGeometry>
        </mxCell>
        <mxCell id="cozXmET7q1ddLi7VtLE--59" value="" style="ellipse;whiteSpace=wrap;html=1;aspect=fixed;" parent="1" vertex="1">
          <mxGeometry x="510" y="465" width="10" height="10" as="geometry" />
        </mxCell>
        <mxCell id="cozXmET7q1ddLi7VtLE--60" value="" style="ellipse;whiteSpace=wrap;html=1;aspect=fixed;" parent="1" vertex="1">
          <mxGeometry x="510" y="485" width="10" height="10" as="geometry" />
        </mxCell>
        <mxCell id="cozXmET7q1ddLi7VtLE--61" value="city" style="text;html=1;align=center;verticalAlign=middle;resizable=0;points=[];autosize=1;strokeColor=none;fillColor=none;" parent="1" vertex="1">
          <mxGeometry x="525" y="435" width="40" height="30" as="geometry" />
        </mxCell>
        <mxCell id="cozXmET7q1ddLi7VtLE--62" value="" style="endArrow=none;html=1;rounded=0;exitX=1;exitY=0.5;exitDx=0;exitDy=0;entryX=0;entryY=0.5;entryDx=0;entryDy=0;" parent="1" source="cozXmET7q1ddLi7VtLE--23" target="cozXmET7q1ddLi7VtLE--52" edge="1">
          <mxGeometry width="50" height="50" relative="1" as="geometry">
            <mxPoint x="440" y="440" as="sourcePoint" />
            <mxPoint x="490" y="390" as="targetPoint" />
          </mxGeometry>
        </mxCell>
        <mxCell id="cozXmET7q1ddLi7VtLE--64" value="" style="endArrow=none;html=1;rounded=0;exitX=1.008;exitY=0.079;exitDx=0;exitDy=0;exitPerimeter=0;entryX=0;entryY=0.5;entryDx=0;entryDy=0;" parent="1" source="cozXmET7q1ddLi7VtLE--23" target="cozXmET7q1ddLi7VtLE--65" edge="1">
          <mxGeometry width="50" height="50" relative="1" as="geometry">
            <mxPoint x="475" y="469" as="sourcePoint" />
            <mxPoint x="410" y="430" as="targetPoint" />
            <Array as="points">
              <mxPoint x="380" y="430" />
            </Array>
          </mxGeometry>
        </mxCell>
        <mxCell id="cozXmET7q1ddLi7VtLE--65" value="" style="ellipse;whiteSpace=wrap;html=1;aspect=fixed;fillColor=#007FFF;" parent="1" vertex="1">
          <mxGeometry x="400" y="420" width="10" height="10" as="geometry" />
        </mxCell>
        <mxCell id="cozXmET7q1ddLi7VtLE--66" value="id" style="text;html=1;align=center;verticalAlign=middle;resizable=0;points=[];autosize=1;strokeColor=none;fillColor=none;" parent="1" vertex="1">
          <mxGeometry x="410" y="410" width="30" height="30" as="geometry" />
        </mxCell>
        <mxCell id="cozXmET7q1ddLi7VtLE--67" value="" style="endArrow=none;html=1;rounded=0;exitX=0.5;exitY=0;exitDx=0;exitDy=0;entryX=0.5;entryY=1;entryDx=0;entryDy=0;" parent="1" source="cozXmET7q1ddLi7VtLE--12" target="cozXmET7q1ddLi7VtLE--69" edge="1">
          <mxGeometry width="50" height="50" relative="1" as="geometry">
            <mxPoint x="70" y="200" as="sourcePoint" />
            <mxPoint x="100" y="180" as="targetPoint" />
          </mxGeometry>
        </mxCell>
        <mxCell id="cozXmET7q1ddLi7VtLE--68" value="start_date" style="text;html=1;strokeColor=none;fillColor=none;align=center;verticalAlign=middle;whiteSpace=wrap;rounded=0;" parent="1" vertex="1">
          <mxGeometry x="110" y="147.5" width="60" height="30" as="geometry" />
        </mxCell>
        <mxCell id="cozXmET7q1ddLi7VtLE--69" value="" style="ellipse;whiteSpace=wrap;html=1;aspect=fixed;" parent="1" vertex="1">
          <mxGeometry x="95" y="157.5" width="10" height="10" as="geometry" />
        </mxCell>
        <mxCell id="cozXmET7q1ddLi7VtLE--70" value="" style="endArrow=none;html=1;rounded=0;exitX=0.707;exitY=0.217;exitDx=0;exitDy=0;entryX=0.5;entryY=1;entryDx=0;entryDy=0;exitPerimeter=0;" parent="1" source="cozXmET7q1ddLi7VtLE--12" target="cozXmET7q1ddLi7VtLE--71" edge="1">
          <mxGeometry width="50" height="50" relative="1" as="geometry">
            <mxPoint x="140" y="227.5" as="sourcePoint" />
            <mxPoint x="140" y="197.5" as="targetPoint" />
          </mxGeometry>
        </mxCell>
        <mxCell id="cozXmET7q1ddLi7VtLE--71" value="" style="ellipse;whiteSpace=wrap;html=1;aspect=fixed;" parent="1" vertex="1">
          <mxGeometry x="120" y="187.5" width="10" height="10" as="geometry" />
        </mxCell>
        <mxCell id="cozXmET7q1ddLi7VtLE--72" value="end_date" style="text;html=1;strokeColor=none;fillColor=none;align=center;verticalAlign=middle;whiteSpace=wrap;rounded=0;" parent="1" vertex="1">
          <mxGeometry x="130" y="177.5" width="60" height="30" as="geometry" />
        </mxCell>
        <mxCell id="MqjghixwczQ9PmIVHJTT-1" value="driver" style="shape=table;startSize=30;container=1;collapsible=1;childLayout=tableLayout;fixedRows=1;rowLines=0;fontStyle=1;align=center;resizeLast=1;html=1;" vertex="1" parent="1">
          <mxGeometry x="-450" y="690" width="180" height="120" as="geometry" />
        </mxCell>
        <mxCell id="MqjghixwczQ9PmIVHJTT-2" value="" style="shape=tableRow;horizontal=0;startSize=0;swimlaneHead=0;swimlaneBody=0;fillColor=none;collapsible=0;dropTarget=0;points=[[0,0.5],[1,0.5]];portConstraint=eastwest;top=0;left=0;right=0;bottom=1;" vertex="1" parent="MqjghixwczQ9PmIVHJTT-1">
          <mxGeometry y="30" width="180" height="30" as="geometry" />
        </mxCell>
        <mxCell id="MqjghixwczQ9PmIVHJTT-3" value="PK" style="shape=partialRectangle;connectable=0;fillColor=none;top=0;left=0;bottom=0;right=0;fontStyle=1;overflow=hidden;whiteSpace=wrap;html=1;" vertex="1" parent="MqjghixwczQ9PmIVHJTT-2">
          <mxGeometry width="30" height="30" as="geometry">
            <mxRectangle width="30" height="30" as="alternateBounds" />
          </mxGeometry>
        </mxCell>
        <mxCell id="MqjghixwczQ9PmIVHJTT-4" value="id" style="shape=partialRectangle;connectable=0;fillColor=none;top=0;left=0;bottom=0;right=0;align=left;spacingLeft=6;fontStyle=5;overflow=hidden;whiteSpace=wrap;html=1;" vertex="1" parent="MqjghixwczQ9PmIVHJTT-2">
          <mxGeometry x="30" width="150" height="30" as="geometry">
            <mxRectangle width="150" height="30" as="alternateBounds" />
          </mxGeometry>
        </mxCell>
        <mxCell id="MqjghixwczQ9PmIVHJTT-5" value="" style="shape=tableRow;horizontal=0;startSize=0;swimlaneHead=0;swimlaneBody=0;fillColor=none;collapsible=0;dropTarget=0;points=[[0,0.5],[1,0.5]];portConstraint=eastwest;top=0;left=0;right=0;bottom=0;" vertex="1" parent="MqjghixwczQ9PmIVHJTT-1">
          <mxGeometry y="60" width="180" height="30" as="geometry" />
        </mxCell>
        <mxCell id="MqjghixwczQ9PmIVHJTT-6" value="" style="shape=partialRectangle;connectable=0;fillColor=none;top=0;left=0;bottom=0;right=0;editable=1;overflow=hidden;whiteSpace=wrap;html=1;" vertex="1" parent="MqjghixwczQ9PmIVHJTT-5">
          <mxGeometry width="30" height="30" as="geometry">
            <mxRectangle width="30" height="30" as="alternateBounds" />
          </mxGeometry>
        </mxCell>
        <mxCell id="MqjghixwczQ9PmIVHJTT-7" value="name" style="shape=partialRectangle;connectable=0;fillColor=none;top=0;left=0;bottom=0;right=0;align=left;spacingLeft=6;overflow=hidden;whiteSpace=wrap;html=1;" vertex="1" parent="MqjghixwczQ9PmIVHJTT-5">
          <mxGeometry x="30" width="150" height="30" as="geometry">
            <mxRectangle width="150" height="30" as="alternateBounds" />
          </mxGeometry>
        </mxCell>
        <mxCell id="MqjghixwczQ9PmIVHJTT-8" value="" style="shape=tableRow;horizontal=0;startSize=0;swimlaneHead=0;swimlaneBody=0;fillColor=none;collapsible=0;dropTarget=0;points=[[0,0.5],[1,0.5]];portConstraint=eastwest;top=0;left=0;right=0;bottom=0;" vertex="1" parent="MqjghixwczQ9PmIVHJTT-1">
          <mxGeometry y="90" width="180" height="30" as="geometry" />
        </mxCell>
        <mxCell id="MqjghixwczQ9PmIVHJTT-9" value="UQ" style="shape=partialRectangle;connectable=0;fillColor=none;top=0;left=0;bottom=0;right=0;editable=1;overflow=hidden;whiteSpace=wrap;html=1;" vertex="1" parent="MqjghixwczQ9PmIVHJTT-8">
          <mxGeometry width="30" height="30" as="geometry">
            <mxRectangle width="30" height="30" as="alternateBounds" />
          </mxGeometry>
        </mxCell>
        <mxCell id="MqjghixwczQ9PmIVHJTT-10" value="phone" style="shape=partialRectangle;connectable=0;fillColor=none;top=0;left=0;bottom=0;right=0;align=left;spacingLeft=6;overflow=hidden;whiteSpace=wrap;html=1;" vertex="1" parent="MqjghixwczQ9PmIVHJTT-8">
          <mxGeometry x="30" width="150" height="30" as="geometry">
            <mxRectangle width="150" height="30" as="alternateBounds" />
          </mxGeometry>
        </mxCell>
        <mxCell id="MqjghixwczQ9PmIVHJTT-14" value="vehicle" style="shape=table;startSize=30;container=1;collapsible=1;childLayout=tableLayout;fixedRows=1;rowLines=0;fontStyle=1;align=center;resizeLast=1;html=1;" vertex="1" parent="1">
          <mxGeometry x="235" y="690" width="180" height="180" as="geometry" />
        </mxCell>
        <mxCell id="MqjghixwczQ9PmIVHJTT-15" value="" style="shape=tableRow;horizontal=0;startSize=0;swimlaneHead=0;swimlaneBody=0;fillColor=none;collapsible=0;dropTarget=0;points=[[0,0.5],[1,0.5]];portConstraint=eastwest;top=0;left=0;right=0;bottom=1;" vertex="1" parent="MqjghixwczQ9PmIVHJTT-14">
          <mxGeometry y="30" width="180" height="30" as="geometry" />
        </mxCell>
        <mxCell id="MqjghixwczQ9PmIVHJTT-16" value="PK" style="shape=partialRectangle;connectable=0;fillColor=none;top=0;left=0;bottom=0;right=0;fontStyle=1;overflow=hidden;whiteSpace=wrap;html=1;" vertex="1" parent="MqjghixwczQ9PmIVHJTT-15">
          <mxGeometry width="30" height="30" as="geometry">
            <mxRectangle width="30" height="30" as="alternateBounds" />
          </mxGeometry>
        </mxCell>
        <mxCell id="MqjghixwczQ9PmIVHJTT-17" value="id" style="shape=partialRectangle;connectable=0;fillColor=none;top=0;left=0;bottom=0;right=0;align=left;spacingLeft=6;fontStyle=5;overflow=hidden;whiteSpace=wrap;html=1;" vertex="1" parent="MqjghixwczQ9PmIVHJTT-15">
          <mxGeometry x="30" width="150" height="30" as="geometry">
            <mxRectangle width="150" height="30" as="alternateBounds" />
          </mxGeometry>
        </mxCell>
        <mxCell id="MqjghixwczQ9PmIVHJTT-18" value="" style="shape=tableRow;horizontal=0;startSize=0;swimlaneHead=0;swimlaneBody=0;fillColor=none;collapsible=0;dropTarget=0;points=[[0,0.5],[1,0.5]];portConstraint=eastwest;top=0;left=0;right=0;bottom=0;" vertex="1" parent="MqjghixwczQ9PmIVHJTT-14">
          <mxGeometry y="60" width="180" height="30" as="geometry" />
        </mxCell>
        <mxCell id="MqjghixwczQ9PmIVHJTT-19" value="UQ" style="shape=partialRectangle;connectable=0;fillColor=none;top=0;left=0;bottom=0;right=0;editable=1;overflow=hidden;whiteSpace=wrap;html=1;" vertex="1" parent="MqjghixwczQ9PmIVHJTT-18">
          <mxGeometry width="30" height="30" as="geometry">
            <mxRectangle width="30" height="30" as="alternateBounds" />
          </mxGeometry>
        </mxCell>
        <mxCell id="MqjghixwczQ9PmIVHJTT-20" value="plate_number" style="shape=partialRectangle;connectable=0;fillColor=none;top=0;left=0;bottom=0;right=0;align=left;spacingLeft=6;overflow=hidden;whiteSpace=wrap;html=1;" vertex="1" parent="MqjghixwczQ9PmIVHJTT-18">
          <mxGeometry x="30" width="150" height="30" as="geometry">
            <mxRectangle width="150" height="30" as="alternateBounds" />
          </mxGeometry>
        </mxCell>
        <mxCell id="MqjghixwczQ9PmIVHJTT-21" value="" style="shape=tableRow;horizontal=0;startSize=0;swimlaneHead=0;swimlaneBody=0;fillColor=none;collapsible=0;dropTarget=0;points=[[0,0.5],[1,0.5]];portConstraint=eastwest;top=0;left=0;right=0;bottom=0;" vertex="1" parent="MqjghixwczQ9PmIVHJTT-14">
          <mxGeometry y="90" width="180" height="30" as="geometry" />
        </mxCell>
        <mxCell id="MqjghixwczQ9PmIVHJTT-22" value="" style="shape=partialRectangle;connectable=0;fillColor=none;top=0;left=0;bottom=0;right=0;editable=1;overflow=hidden;whiteSpace=wrap;html=1;" vertex="1" parent="MqjghixwczQ9PmIVHJTT-21">
          <mxGeometry width="30" height="30" as="geometry">
            <mxRectangle width="30" height="30" as="alternateBounds" />
          </mxGeometry>
        </mxCell>
        <mxCell id="MqjghixwczQ9PmIVHJTT-23" value="brand" style="shape=partialRectangle;connectable=0;fillColor=none;top=0;left=0;bottom=0;right=0;align=left;spacingLeft=6;overflow=hidden;whiteSpace=wrap;html=1;" vertex="1" parent="MqjghixwczQ9PmIVHJTT-21">
          <mxGeometry x="30" width="150" height="30" as="geometry">
            <mxRectangle width="150" height="30" as="alternateBounds" />
          </mxGeometry>
        </mxCell>
        <mxCell id="MqjghixwczQ9PmIVHJTT-24" value="" style="shape=tableRow;horizontal=0;startSize=0;swimlaneHead=0;swimlaneBody=0;fillColor=none;collapsible=0;dropTarget=0;points=[[0,0.5],[1,0.5]];portConstraint=eastwest;top=0;left=0;right=0;bottom=0;" vertex="1" parent="MqjghixwczQ9PmIVHJTT-14">
          <mxGeometry y="120" width="180" height="30" as="geometry" />
        </mxCell>
        <mxCell id="MqjghixwczQ9PmIVHJTT-25" value="" style="shape=partialRectangle;connectable=0;fillColor=none;top=0;left=0;bottom=0;right=0;editable=1;overflow=hidden;whiteSpace=wrap;html=1;" vertex="1" parent="MqjghixwczQ9PmIVHJTT-24">
          <mxGeometry width="30" height="30" as="geometry">
            <mxRectangle width="30" height="30" as="alternateBounds" />
          </mxGeometry>
        </mxCell>
        <mxCell id="MqjghixwczQ9PmIVHJTT-26" value="model" style="shape=partialRectangle;connectable=0;fillColor=none;top=0;left=0;bottom=0;right=0;align=left;spacingLeft=6;overflow=hidden;whiteSpace=wrap;html=1;" vertex="1" parent="MqjghixwczQ9PmIVHJTT-24">
          <mxGeometry x="30" width="150" height="30" as="geometry">
            <mxRectangle width="150" height="30" as="alternateBounds" />
          </mxGeometry>
        </mxCell>
        <mxCell id="MqjghixwczQ9PmIVHJTT-27" style="shape=tableRow;horizontal=0;startSize=0;swimlaneHead=0;swimlaneBody=0;fillColor=none;collapsible=0;dropTarget=0;points=[[0,0.5],[1,0.5]];portConstraint=eastwest;top=0;left=0;right=0;bottom=0;" vertex="1" parent="MqjghixwczQ9PmIVHJTT-14">
          <mxGeometry y="150" width="180" height="30" as="geometry" />
        </mxCell>
        <mxCell id="MqjghixwczQ9PmIVHJTT-28" style="shape=partialRectangle;connectable=0;fillColor=none;top=0;left=0;bottom=0;right=0;editable=1;overflow=hidden;whiteSpace=wrap;html=1;" vertex="1" parent="MqjghixwczQ9PmIVHJTT-27">
          <mxGeometry width="30" height="30" as="geometry">
            <mxRectangle width="30" height="30" as="alternateBounds" />
          </mxGeometry>
        </mxCell>
        <mxCell id="MqjghixwczQ9PmIVHJTT-29" value="image" style="shape=partialRectangle;connectable=0;fillColor=none;top=0;left=0;bottom=0;right=0;align=left;spacingLeft=6;overflow=hidden;whiteSpace=wrap;html=1;" vertex="1" parent="MqjghixwczQ9PmIVHJTT-27">
          <mxGeometry x="30" width="150" height="30" as="geometry">
            <mxRectangle width="150" height="30" as="alternateBounds" />
          </mxGeometry>
        </mxCell>
        <mxCell id="MqjghixwczQ9PmIVHJTT-37" value="vehicle_image" style="shape=table;startSize=30;container=1;collapsible=1;childLayout=tableLayout;fixedRows=1;rowLines=0;fontStyle=1;align=center;resizeLast=1;html=1;" vertex="1" parent="1">
          <mxGeometry x="585" y="690" width="180" height="90" as="geometry" />
        </mxCell>
        <mxCell id="MqjghixwczQ9PmIVHJTT-38" value="" style="shape=tableRow;horizontal=0;startSize=0;swimlaneHead=0;swimlaneBody=0;fillColor=none;collapsible=0;dropTarget=0;points=[[0,0.5],[1,0.5]];portConstraint=eastwest;top=0;left=0;right=0;bottom=1;" vertex="1" parent="MqjghixwczQ9PmIVHJTT-37">
          <mxGeometry y="30" width="180" height="30" as="geometry" />
        </mxCell>
        <mxCell id="MqjghixwczQ9PmIVHJTT-39" value="FK" style="shape=partialRectangle;connectable=0;fillColor=none;top=0;left=0;bottom=0;right=0;fontStyle=1;overflow=hidden;whiteSpace=wrap;html=1;" vertex="1" parent="MqjghixwczQ9PmIVHJTT-38">
          <mxGeometry width="30" height="30" as="geometry">
            <mxRectangle width="30" height="30" as="alternateBounds" />
          </mxGeometry>
        </mxCell>
        <mxCell id="MqjghixwczQ9PmIVHJTT-40" value="vehicle_id" style="shape=partialRectangle;connectable=0;fillColor=none;top=0;left=0;bottom=0;right=0;align=left;spacingLeft=6;fontStyle=5;overflow=hidden;whiteSpace=wrap;html=1;" vertex="1" parent="MqjghixwczQ9PmIVHJTT-38">
          <mxGeometry x="30" width="150" height="30" as="geometry">
            <mxRectangle width="150" height="30" as="alternateBounds" />
          </mxGeometry>
        </mxCell>
        <mxCell id="MqjghixwczQ9PmIVHJTT-41" value="" style="shape=tableRow;horizontal=0;startSize=0;swimlaneHead=0;swimlaneBody=0;fillColor=none;collapsible=0;dropTarget=0;points=[[0,0.5],[1,0.5]];portConstraint=eastwest;top=0;left=0;right=0;bottom=0;" vertex="1" parent="MqjghixwczQ9PmIVHJTT-37">
          <mxGeometry y="60" width="180" height="30" as="geometry" />
        </mxCell>
        <mxCell id="MqjghixwczQ9PmIVHJTT-42" value="" style="shape=partialRectangle;connectable=0;fillColor=none;top=0;left=0;bottom=0;right=0;editable=1;overflow=hidden;whiteSpace=wrap;html=1;" vertex="1" parent="MqjghixwczQ9PmIVHJTT-41">
          <mxGeometry width="30" height="30" as="geometry">
            <mxRectangle width="30" height="30" as="alternateBounds" />
          </mxGeometry>
        </mxCell>
        <mxCell id="MqjghixwczQ9PmIVHJTT-43" value="url" style="shape=partialRectangle;connectable=0;fillColor=none;top=0;left=0;bottom=0;right=0;align=left;spacingLeft=6;overflow=hidden;whiteSpace=wrap;html=1;" vertex="1" parent="MqjghixwczQ9PmIVHJTT-41">
          <mxGeometry x="30" width="150" height="30" as="geometry">
            <mxRectangle width="150" height="30" as="alternateBounds" />
          </mxGeometry>
        </mxCell>
        <mxCell id="MqjghixwczQ9PmIVHJTT-47" value="driver_vehicle" style="shape=table;startSize=30;container=1;collapsible=1;childLayout=tableLayout;fixedRows=1;rowLines=0;fontStyle=1;align=center;resizeLast=1;html=1;" vertex="1" parent="1">
          <mxGeometry x="-85" y="690" width="180" height="150" as="geometry" />
        </mxCell>
        <mxCell id="MqjghixwczQ9PmIVHJTT-48" value="" style="shape=tableRow;horizontal=0;startSize=0;swimlaneHead=0;swimlaneBody=0;fillColor=none;collapsible=0;dropTarget=0;points=[[0,0.5],[1,0.5]];portConstraint=eastwest;top=0;left=0;right=0;bottom=1;" vertex="1" parent="MqjghixwczQ9PmIVHJTT-47">
          <mxGeometry y="30" width="180" height="30" as="geometry" />
        </mxCell>
        <mxCell id="MqjghixwczQ9PmIVHJTT-49" value="PK, FK1" style="shape=partialRectangle;connectable=0;fillColor=none;top=0;left=0;bottom=0;right=0;fontStyle=1;overflow=hidden;whiteSpace=wrap;html=1;" vertex="1" parent="MqjghixwczQ9PmIVHJTT-48">
          <mxGeometry width="65" height="30" as="geometry">
            <mxRectangle width="65" height="30" as="alternateBounds" />
          </mxGeometry>
        </mxCell>
        <mxCell id="MqjghixwczQ9PmIVHJTT-50" value="driver_id" style="shape=partialRectangle;connectable=0;fillColor=none;top=0;left=0;bottom=0;right=0;align=left;spacingLeft=6;fontStyle=5;overflow=hidden;whiteSpace=wrap;html=1;" vertex="1" parent="MqjghixwczQ9PmIVHJTT-48">
          <mxGeometry x="65" width="115" height="30" as="geometry">
            <mxRectangle width="115" height="30" as="alternateBounds" />
          </mxGeometry>
        </mxCell>
        <mxCell id="MqjghixwczQ9PmIVHJTT-58" style="shape=tableRow;horizontal=0;startSize=0;swimlaneHead=0;swimlaneBody=0;fillColor=none;collapsible=0;dropTarget=0;points=[[0,0.5],[1,0.5]];portConstraint=eastwest;top=0;left=0;right=0;bottom=0;" vertex="1" parent="MqjghixwczQ9PmIVHJTT-47">
          <mxGeometry y="60" width="180" height="30" as="geometry" />
        </mxCell>
        <mxCell id="MqjghixwczQ9PmIVHJTT-59" value="UQ, FK2" style="shape=partialRectangle;connectable=0;fillColor=none;top=0;left=0;bottom=0;right=0;editable=1;overflow=hidden;whiteSpace=wrap;html=1;" vertex="1" parent="MqjghixwczQ9PmIVHJTT-58">
          <mxGeometry width="65" height="30" as="geometry">
            <mxRectangle width="65" height="30" as="alternateBounds" />
          </mxGeometry>
        </mxCell>
        <mxCell id="MqjghixwczQ9PmIVHJTT-60" value="vehicle_id" style="shape=partialRectangle;connectable=0;fillColor=none;top=0;left=0;bottom=0;right=0;align=left;spacingLeft=6;overflow=hidden;whiteSpace=wrap;html=1;" vertex="1" parent="MqjghixwczQ9PmIVHJTT-58">
          <mxGeometry x="65" width="115" height="30" as="geometry">
            <mxRectangle width="115" height="30" as="alternateBounds" />
          </mxGeometry>
        </mxCell>
        <mxCell id="MqjghixwczQ9PmIVHJTT-51" value="" style="shape=tableRow;horizontal=0;startSize=0;swimlaneHead=0;swimlaneBody=0;fillColor=none;collapsible=0;dropTarget=0;points=[[0,0.5],[1,0.5]];portConstraint=eastwest;top=0;left=0;right=0;bottom=0;" vertex="1" parent="MqjghixwczQ9PmIVHJTT-47">
          <mxGeometry y="90" width="180" height="30" as="geometry" />
        </mxCell>
        <mxCell id="MqjghixwczQ9PmIVHJTT-52" value="" style="shape=partialRectangle;connectable=0;fillColor=none;top=0;left=0;bottom=0;right=0;editable=1;overflow=hidden;whiteSpace=wrap;html=1;" vertex="1" parent="MqjghixwczQ9PmIVHJTT-51">
          <mxGeometry width="65" height="30" as="geometry">
            <mxRectangle width="65" height="30" as="alternateBounds" />
          </mxGeometry>
        </mxCell>
        <mxCell id="MqjghixwczQ9PmIVHJTT-53" value="start_date" style="shape=partialRectangle;connectable=0;fillColor=none;top=0;left=0;bottom=0;right=0;align=left;spacingLeft=6;overflow=hidden;whiteSpace=wrap;html=1;" vertex="1" parent="MqjghixwczQ9PmIVHJTT-51">
          <mxGeometry x="65" width="115" height="30" as="geometry">
            <mxRectangle width="115" height="30" as="alternateBounds" />
          </mxGeometry>
        </mxCell>
        <mxCell id="MqjghixwczQ9PmIVHJTT-54" value="" style="shape=tableRow;horizontal=0;startSize=0;swimlaneHead=0;swimlaneBody=0;fillColor=none;collapsible=0;dropTarget=0;points=[[0,0.5],[1,0.5]];portConstraint=eastwest;top=0;left=0;right=0;bottom=0;" vertex="1" parent="MqjghixwczQ9PmIVHJTT-47">
          <mxGeometry y="120" width="180" height="30" as="geometry" />
        </mxCell>
        <mxCell id="MqjghixwczQ9PmIVHJTT-55" value="" style="shape=partialRectangle;connectable=0;fillColor=none;top=0;left=0;bottom=0;right=0;editable=1;overflow=hidden;whiteSpace=wrap;html=1;" vertex="1" parent="MqjghixwczQ9PmIVHJTT-54">
          <mxGeometry width="65" height="30" as="geometry">
            <mxRectangle width="65" height="30" as="alternateBounds" />
          </mxGeometry>
        </mxCell>
        <mxCell id="MqjghixwczQ9PmIVHJTT-56" value="end_date" style="shape=partialRectangle;connectable=0;fillColor=none;top=0;left=0;bottom=0;right=0;align=left;spacingLeft=6;overflow=hidden;whiteSpace=wrap;html=1;" vertex="1" parent="MqjghixwczQ9PmIVHJTT-54">
          <mxGeometry x="65" width="115" height="30" as="geometry">
            <mxRectangle width="115" height="30" as="alternateBounds" />
          </mxGeometry>
        </mxCell>
        <mxCell id="MqjghixwczQ9PmIVHJTT-57" value="" style="edgeStyle=entityRelationEdgeStyle;fontSize=12;html=1;endArrow=ERzeroToOne;startArrow=ERmandOne;rounded=0;entryX=0;entryY=0.5;entryDx=0;entryDy=0;exitX=1;exitY=0.5;exitDx=0;exitDy=0;" edge="1" parent="1" source="MqjghixwczQ9PmIVHJTT-2" target="MqjghixwczQ9PmIVHJTT-48">
          <mxGeometry width="100" height="100" relative="1" as="geometry">
            <mxPoint x="-190" y="730" as="sourcePoint" />
            <mxPoint x="-100" y="820" as="targetPoint" />
          </mxGeometry>
        </mxCell>
        <mxCell id="MqjghixwczQ9PmIVHJTT-62" value="" style="fontSize=12;html=1;endArrow=ERzeroToOne;startArrow=ERmandOne;rounded=0;exitX=0;exitY=0.5;exitDx=0;exitDy=0;entryX=1;entryY=0.5;entryDx=0;entryDy=0;" edge="1" parent="1" source="MqjghixwczQ9PmIVHJTT-15" target="MqjghixwczQ9PmIVHJTT-58">
          <mxGeometry width="100" height="100" relative="1" as="geometry">
            <mxPoint x="-220" y="970" as="sourcePoint" />
            <mxPoint x="-120" y="870" as="targetPoint" />
            <Array as="points">
              <mxPoint x="150" y="735" />
              <mxPoint x="140" y="765" />
            </Array>
          </mxGeometry>
        </mxCell>
        <mxCell id="MqjghixwczQ9PmIVHJTT-63" value="" style="edgeStyle=entityRelationEdgeStyle;fontSize=12;html=1;endArrow=ERoneToMany;startArrow=ERmandOne;rounded=0;exitX=1;exitY=0.5;exitDx=0;exitDy=0;entryX=0;entryY=0.5;entryDx=0;entryDy=0;" edge="1" parent="1" source="MqjghixwczQ9PmIVHJTT-15" target="MqjghixwczQ9PmIVHJTT-38">
          <mxGeometry width="100" height="100" relative="1" as="geometry">
            <mxPoint x="440" y="960" as="sourcePoint" />
            <mxPoint x="540" y="860" as="targetPoint" />
          </mxGeometry>
        </mxCell>
        <mxCell id="MqjghixwczQ9PmIVHJTT-64" value="&lt;div&gt;Update: CASCADE&lt;/div&gt;&lt;div&gt;Delete: CASCADE&lt;br&gt;&lt;/div&gt;" style="text;html=1;align=center;verticalAlign=middle;resizable=0;points=[];autosize=1;strokeColor=none;fillColor=none;" vertex="1" parent="1">
          <mxGeometry x="425" y="673" width="130" height="40" as="geometry" />
        </mxCell>
        <mxCell id="MqjghixwczQ9PmIVHJTT-65" value="&lt;div&gt;Update: CASCADE&lt;/div&gt;&lt;div&gt;Delete: CASCADE&lt;br&gt;&lt;/div&gt;" style="text;html=1;align=center;verticalAlign=middle;resizable=0;points=[];autosize=1;strokeColor=none;fillColor=none;" vertex="1" parent="1">
          <mxGeometry x="105" y="680" width="130" height="40" as="geometry" />
        </mxCell>
        <mxCell id="MqjghixwczQ9PmIVHJTT-66" value="&lt;div&gt;Update: CASCADE&lt;/div&gt;&lt;div&gt;Delete: CASCADE&lt;br&gt;&lt;/div&gt;" style="text;html=1;align=center;verticalAlign=middle;resizable=0;points=[];autosize=1;strokeColor=none;fillColor=none;" vertex="1" parent="1">
          <mxGeometry x="-240" y="673" width="130" height="40" as="geometry" />
        </mxCell>
        <mxCell id="MqjghixwczQ9PmIVHJTT-67" value="parkings" style="shape=table;startSize=30;container=1;collapsible=1;childLayout=tableLayout;fixedRows=1;rowLines=0;fontStyle=1;align=center;resizeLast=1;html=1;" vertex="1" parent="1">
          <mxGeometry x="235" y="920" width="180" height="150" as="geometry" />
        </mxCell>
        <mxCell id="MqjghixwczQ9PmIVHJTT-68" value="" style="shape=tableRow;horizontal=0;startSize=0;swimlaneHead=0;swimlaneBody=0;fillColor=none;collapsible=0;dropTarget=0;points=[[0,0.5],[1,0.5]];portConstraint=eastwest;top=0;left=0;right=0;bottom=1;" vertex="1" parent="MqjghixwczQ9PmIVHJTT-67">
          <mxGeometry y="30" width="180" height="30" as="geometry" />
        </mxCell>
        <mxCell id="MqjghixwczQ9PmIVHJTT-69" value="PK" style="shape=partialRectangle;connectable=0;fillColor=none;top=0;left=0;bottom=0;right=0;fontStyle=1;overflow=hidden;whiteSpace=wrap;html=1;" vertex="1" parent="MqjghixwczQ9PmIVHJTT-68">
          <mxGeometry width="30" height="30" as="geometry">
            <mxRectangle width="30" height="30" as="alternateBounds" />
          </mxGeometry>
        </mxCell>
        <mxCell id="MqjghixwczQ9PmIVHJTT-70" value="id" style="shape=partialRectangle;connectable=0;fillColor=none;top=0;left=0;bottom=0;right=0;align=left;spacingLeft=6;fontStyle=5;overflow=hidden;whiteSpace=wrap;html=1;" vertex="1" parent="MqjghixwczQ9PmIVHJTT-68">
          <mxGeometry x="30" width="150" height="30" as="geometry">
            <mxRectangle width="150" height="30" as="alternateBounds" />
          </mxGeometry>
        </mxCell>
        <mxCell id="MqjghixwczQ9PmIVHJTT-71" value="" style="shape=tableRow;horizontal=0;startSize=0;swimlaneHead=0;swimlaneBody=0;fillColor=none;collapsible=0;dropTarget=0;points=[[0,0.5],[1,0.5]];portConstraint=eastwest;top=0;left=0;right=0;bottom=0;" vertex="1" parent="MqjghixwczQ9PmIVHJTT-67">
          <mxGeometry y="60" width="180" height="30" as="geometry" />
        </mxCell>
        <mxCell id="MqjghixwczQ9PmIVHJTT-72" value="" style="shape=partialRectangle;connectable=0;fillColor=none;top=0;left=0;bottom=0;right=0;editable=1;overflow=hidden;whiteSpace=wrap;html=1;" vertex="1" parent="MqjghixwczQ9PmIVHJTT-71">
          <mxGeometry width="30" height="30" as="geometry">
            <mxRectangle width="30" height="30" as="alternateBounds" />
          </mxGeometry>
        </mxCell>
        <mxCell id="MqjghixwczQ9PmIVHJTT-73" value="city&lt;span style=&quot;white-space: pre;&quot;&gt;&#x9;&lt;/span&gt;" style="shape=partialRectangle;connectable=0;fillColor=none;top=0;left=0;bottom=0;right=0;align=left;spacingLeft=6;overflow=hidden;whiteSpace=wrap;html=1;" vertex="1" parent="MqjghixwczQ9PmIVHJTT-71">
          <mxGeometry x="30" width="150" height="30" as="geometry">
            <mxRectangle width="150" height="30" as="alternateBounds" />
          </mxGeometry>
        </mxCell>
        <mxCell id="MqjghixwczQ9PmIVHJTT-74" value="" style="shape=tableRow;horizontal=0;startSize=0;swimlaneHead=0;swimlaneBody=0;fillColor=none;collapsible=0;dropTarget=0;points=[[0,0.5],[1,0.5]];portConstraint=eastwest;top=0;left=0;right=0;bottom=0;" vertex="1" parent="MqjghixwczQ9PmIVHJTT-67">
          <mxGeometry y="90" width="180" height="30" as="geometry" />
        </mxCell>
        <mxCell id="MqjghixwczQ9PmIVHJTT-75" value="" style="shape=partialRectangle;connectable=0;fillColor=none;top=0;left=0;bottom=0;right=0;editable=1;overflow=hidden;whiteSpace=wrap;html=1;" vertex="1" parent="MqjghixwczQ9PmIVHJTT-74">
          <mxGeometry width="30" height="30" as="geometry">
            <mxRectangle width="30" height="30" as="alternateBounds" />
          </mxGeometry>
        </mxCell>
        <mxCell id="MqjghixwczQ9PmIVHJTT-76" value="street" style="shape=partialRectangle;connectable=0;fillColor=none;top=0;left=0;bottom=0;right=0;align=left;spacingLeft=6;overflow=hidden;whiteSpace=wrap;html=1;" vertex="1" parent="MqjghixwczQ9PmIVHJTT-74">
          <mxGeometry x="30" width="150" height="30" as="geometry">
            <mxRectangle width="150" height="30" as="alternateBounds" />
          </mxGeometry>
        </mxCell>
        <mxCell id="MqjghixwczQ9PmIVHJTT-77" value="" style="shape=tableRow;horizontal=0;startSize=0;swimlaneHead=0;swimlaneBody=0;fillColor=none;collapsible=0;dropTarget=0;points=[[0,0.5],[1,0.5]];portConstraint=eastwest;top=0;left=0;right=0;bottom=0;" vertex="1" parent="MqjghixwczQ9PmIVHJTT-67">
          <mxGeometry y="120" width="180" height="30" as="geometry" />
        </mxCell>
        <mxCell id="MqjghixwczQ9PmIVHJTT-78" value="" style="shape=partialRectangle;connectable=0;fillColor=none;top=0;left=0;bottom=0;right=0;editable=1;overflow=hidden;whiteSpace=wrap;html=1;" vertex="1" parent="MqjghixwczQ9PmIVHJTT-77">
          <mxGeometry width="30" height="30" as="geometry">
            <mxRectangle width="30" height="30" as="alternateBounds" />
          </mxGeometry>
        </mxCell>
        <mxCell id="MqjghixwczQ9PmIVHJTT-79" value="number" style="shape=partialRectangle;connectable=0;fillColor=none;top=0;left=0;bottom=0;right=0;align=left;spacingLeft=6;overflow=hidden;whiteSpace=wrap;html=1;" vertex="1" parent="MqjghixwczQ9PmIVHJTT-77">
          <mxGeometry x="30" width="150" height="30" as="geometry">
            <mxRectangle width="150" height="30" as="alternateBounds" />
          </mxGeometry>
        </mxCell>
        <mxCell id="MqjghixwczQ9PmIVHJTT-80" value="&lt;div&gt;Update: CASCADE&lt;/div&gt;&lt;div&gt;Delete: SET NULL&lt;br&gt;&lt;/div&gt;" style="text;html=1;align=center;verticalAlign=middle;resizable=0;points=[];autosize=1;strokeColor=none;fillColor=none;" vertex="1" parent="1">
          <mxGeometry x="525" y="975" width="130" height="40" as="geometry" />
        </mxCell>
        <mxCell id="MqjghixwczQ9PmIVHJTT-81" value="" style="edgeStyle=entityRelationEdgeStyle;fontSize=12;html=1;endArrow=ERzeroToMany;startArrow=ERzeroToOne;rounded=0;entryX=1;entryY=0.5;entryDx=0;entryDy=0;exitX=1;exitY=0.5;exitDx=0;exitDy=0;" edge="1" parent="1" source="MqjghixwczQ9PmIVHJTT-68" target="MqjghixwczQ9PmIVHJTT-18">
          <mxGeometry width="100" height="100" relative="1" as="geometry">
            <mxPoint x="440" y="980" as="sourcePoint" />
            <mxPoint x="510" y="965" as="targetPoint" />
            <Array as="points">
              <mxPoint x="630" y="900" />
              <mxPoint x="580" y="940" />
              <mxPoint x="560" y="890" />
              <mxPoint x="550" y="880" />
              <mxPoint x="620" y="870" />
            </Array>
          </mxGeometry>
        </mxCell>
      </root>
    </mxGraphModel>
  </diagram>
</mxfile>
